<svg xmlns="http://www.w3.org/2000/svg" width="26.256" height="26.256" viewBox="0 0 26.256 26.256">
    <path d="M170.967 109.955H166a2.367 2.367 0 0 0-2.367 2.367v5.207A2.367 2.367 0 0 0 166 119.9h4.971a2.367 2.367 0 0 0 2.367-2.367v-5.207a2.367 2.367 0 0 0-2.367-2.367zm.789 7.574a.789.789 0 0 1-.789.789H166a.789.789 0 0 1-.789-.789v-5.207a.789.789 0 0 1 .789-.789h4.971a.789.789 0 0 1 .789.789zm-.789-23.889H166a2.367 2.367 0 0 0-2.367 2.367v9.783a2.367 2.367 0 0 0 2.367 2.366h4.971a2.367 2.367 0 0 0 2.367-2.367v-9.782a2.366 2.366 0 0 0-2.367-2.367zm.789 12.15a.789.789 0 0 1-.789.789H166a.789.789 0 0 1-.789-.789v-9.783a.789.789 0 0 1 .789-.789h4.971a.789.789 0 0 1 .789.789zm15.763-1.657H177.5a2.367 2.367 0 0 0-2.367 2.367v11.03a2.367 2.367 0 0 0 2.367 2.37h10.02a2.366 2.366 0 0 0 2.367-2.367V106.5a2.366 2.366 0 0 0-2.367-2.367zm.789 13.4a.789.789 0 0 1-.789.789H177.5a.789.789 0 0 1-.789-.789V106.5a.789.789 0 0 1 .789-.789h10.02a.789.789 0 0 1 .789.789zm-.789-23.89H177.5a2.366 2.366 0 0 0-2.367 2.367v3.961a2.367 2.367 0 0 0 2.367 2.367h10.02a2.366 2.366 0 0 0 2.367-2.367v-3.964a2.366 2.366 0 0 0-2.367-2.367zm.789 6.327a.789.789 0 0 1-.789.789H177.5a.789.789 0 0 1-.789-.789v-3.963a.789.789 0 0 1 .789-.789h10.02a.789.789 0 0 1 .789.789z" transform="translate(-163.63 -93.64)" style="fill:#fff"/>
</svg>
