<svg xmlns="http://www.w3.org/2000/svg" width="25.316" height="25.31" viewBox="0 0 25.316 25.31">
    <path data-name="Path 63333" d="M106.511 26.473v-5.116l-2.69-.343a10.275 10.275 0 0 0-.87-2.089l1.656-2.152-3.618-3.618-2.136 1.661a9.992 9.992 0 0 0-2.1-.87l-.343-2.685H91.3l-.343 2.685a9.8 9.8 0 0 0-2.094.87l-2.147-1.661-3.618 3.618 1.656 2.147a10.78 10.78 0 0 0-.876 2.094l-2.679.343v5.116l2.679.348a10.5 10.5 0 0 0 .876 2.094l-1.656 2.141 3.618 3.623 2.147-1.661a10.071 10.071 0 0 0 2.094.87l.343 2.685h5.111l.343-2.69a9.979 9.979 0 0 0 2.1-.865l2.136 1.661 3.618-3.623-1.656-2.141a10.188 10.188 0 0 0 .87-2.094zm-10.859 4.81a7.466 7.466 0 0 1-1.8.216 7.786 7.786 0 0 1-1.767-.206 7.585 7.585 0 1 1 3.565-.011z" transform="translate(-81.196 -11.263)" style="fill:#e2b73b"/>
    <path data-name="Path 63334" d="M309.623 186.3a2.18 2.18 0 1 0-2.177-2.182 2.181 2.181 0 0 0 2.177 2.182z" transform="translate(-296.792 -173.903)" style="fill:#fff"/>
    <path data-name="Path 63335" d="M265.774 289.86a4.155 4.155 0 0 0-4.153 4.153h8.318a4.157 4.157 0 0 0-4.165-4.153z" transform="translate(-253.125 -276.741)" style="fill:#fff"/>
</svg>
